HIERARCHY
ROOT Haolin_28_06:Solving:Hips
{
	OFFSET 0.000000 0.000000 0.000000
	CHANNELS 6 Xposition Yposition Zposition Xrotation Yrotation Zrotation
	JOINT Haolin_28_06:Solving:Spine
	{
		OFFSET 0.000000 -12.181966 2.015561
		CHANNELS 6 Xposition Yposition Zposition Xrotation Yrotation Zrotation
		JOINT Haolin_28_06:Solving:Spine1
		{
			OFFSET 0.000000 -8.890296 1.567602
			CHANNELS 6 Xposition Yposition Zposition Xrotation Yrotation Zrotation
			JOINT Haolin_28_06:Solving:Spine2
			{
				OFFSET 0.000000 -8.993092 0.786796
				CHANNELS 6 Xposition Yposition Zposition Xrotation Yrotation Zrotation
				JOINT Haolin_28_06:Solving:Spine3
				{
					OFFSET 0.000000 -9.027443 0.000000
					CHANNELS 6 Xposition Yposition Zposition Xrotation Yrotation Zrotation
					JOINT Haolin_28_06:Solving:Neck
					{
						OFFSET 0.000000 -11.606712 -1.160669
						CHANNELS 6 Xposition Yposition Zposition Xrotation Yrotation Zrotation
						JOINT Haolin_28_06:Solving:Neck1
						{
							OFFSET 0.000000 -7.471592 -0.653680
							CHANNELS 6 Xposition Yposition Zposition Xrotation Yrotation Zrotation
							JOINT Haolin_28_06:Solving:Head
							{
								OFFSET 0.000000 -7.386181 -1.302382
								CHANNELS 6 Xposition Yposition Zposition Xrotation Yrotation Zrotation
								JOINT Haolin_28_06:Solving:HeadEnd
								{
									OFFSET 0.000000 -9.728081 0.000002
									CHANNELS 6 Xposition Yposition Zposition Xrotation Yrotation Zrotation
									End Site
									{
										OFFSET 0.000000 -9.728081 0.000002
									}
								}
							}
						}
					}
					JOINT Haolin_28_06:Solving:RightShoulder
					{
						OFFSET 0.000000 -8.290508 -5.270916
						CHANNELS 6 Xposition Yposition Zposition Xrotation Yrotation Zrotation
						JOINT Haolin_28_06:Solving:RightArm
						{
							OFFSET -19.261074 -0.000008 0.000000
							CHANNELS 6 Xposition Yposition Zposition Xrotation Yrotation Zrotation
							JOINT Haolin_28_06:Solving:RightForeArm
							{
								OFFSET -30.691700 -0.000011 0.000000
								CHANNELS 6 Xposition Yposition Zposition Xrotation Yrotation Zrotation
								JOINT Haolin_28_06:Solving:RightHand
								{
									OFFSET -20.216934 -0.000008 0.000000
									CHANNELS 6 Xposition Yposition Zposition Xrotation Yrotation Zrotation
									JOINT Haolin_28_06:Solving:RightHandThumb1
									{
										OFFSET -4.948814 2.881329 -3.679893
										CHANNELS 6 Xposition Yposition Zposition Xrotation Yrotation Zrotation
										End Site
										{
											OFFSET -7.039886 -0.000004 -7.104978
										}
									}
									JOINT Haolin_28_06:Solving:RightHandMiddle1
									{
										OFFSET -13.196846 -0.000004 0.084595
										CHANNELS 6 Xposition Yposition Zposition Xrotation Yrotation Zrotation
										End Site
										{
											OFFSET -10.002037 -0.000004 0.000000
										}
									}
								}
							}
						}
					}
					JOINT Haolin_28_06:Solving:LeftShoulder
					{
						OFFSET 0.000000 -8.290508 -5.270916
						CHANNELS 6 Xposition Yposition Zposition Xrotation Yrotation Zrotation
						JOINT Haolin_28_06:Solving:LeftArm
						{
							OFFSET 19.261074 -0.000008 0.000000
							CHANNELS 6 Xposition Yposition Zposition Xrotation Yrotation Zrotation
							JOINT Haolin_28_06:Solving:LeftForeArm
							{
								OFFSET 30.691700 -0.000011 0.000000
								CHANNELS 6 Xposition Yposition Zposition Xrotation Yrotation Zrotation
								JOINT Haolin_28_06:Solving:LeftHand
								{
									OFFSET 20.216934 -0.000008 0.000000
									CHANNELS 6 Xposition Yposition Zposition Xrotation Yrotation Zrotation
									JOINT Haolin_28_06:Solving:LeftHandThumb1
									{
										OFFSET 4.948814 2.881329 -3.679893
										CHANNELS 6 Xposition Yposition Zposition Xrotation Yrotation Zrotation
										End Site
										{
											OFFSET 7.039886 -0.000004 -7.104978
										}
									}
									JOINT Haolin_28_06:Solving:LeftHandMiddle1
									{
										OFFSET 13.196846 -0.000004 0.084595
										CHANNELS 6 Xposition Yposition Zposition Xrotation Yrotation Zrotation
										End Site
										{
											OFFSET 10.002037 -0.000004 0.000000
										}
									}
								}
							}
						}
					}
				}
			}
		}
	}
	JOINT Haolin_28_06:Solving:RightUpLeg
	{
		OFFSET -10.083070 0.000000 0.000000
		CHANNELS 6 Xposition Yposition Zposition Xrotation Yrotation Zrotation
		JOINT Haolin_28_06:Solving:RightLeg
		{
			OFFSET 0.000000 47.042522 -0.000008
			CHANNELS 6 Xposition Yposition Zposition Xrotation Yrotation Zrotation
			JOINT Haolin_28_06:Solving:RightFoot
			{
				OFFSET 0.000000 38.766415 -0.000006
				CHANNELS 6 Xposition Yposition Zposition Xrotation Yrotation Zrotation
				JOINT Haolin_28_06:Solving:RightForeFoot
				{
					OFFSET 0.000000 3.531212 -0.000000
					CHANNELS 6 Xposition Yposition Zposition Xrotation Yrotation Zrotation
					JOINT Haolin_28_06:Solving:RightToeBase
					{
						OFFSET 0.000000 0.000000 -13.829352
						CHANNELS 6 Xposition Yposition Zposition Xrotation Yrotation Zrotation
						JOINT Haolin_28_06:Solving:RightToeBaseEnd
						{
							OFFSET 0.000000 0.000000 -4.034167
							CHANNELS 6 Xposition Yposition Zposition Xrotation Yrotation Zrotation
							End Site
							{
								OFFSET 0.000000 -4.034164 0.000004
							}
						}
					}
				}
			}
		}
	}
	JOINT Haolin_28_06:Solving:LeftUpLeg
	{
		OFFSET 10.083070 0.000000 0.000000
		CHANNELS 6 Xposition Yposition Zposition Xrotation Yrotation Zrotation
		JOINT Haolin_28_06:Solving:LeftLeg
		{
			OFFSET 0.000000 47.042522 -0.000008
			CHANNELS 6 Xposition Yposition Zposition Xrotation Yrotation Zrotation
			JOINT Haolin_28_06:Solving:LeftFoot
			{
				OFFSET 0.000000 38.766415 -0.000006
				CHANNELS 6 Xposition Yposition Zposition Xrotation Yrotation Zrotation
				JOINT Haolin_28_06:Solving:LeftForeFoot
				{
					OFFSET 0.000000 3.531212 -0.000000
					CHANNELS 6 Xposition Yposition Zposition Xrotation Yrotation Zrotation
					JOINT Haolin_28_06:Solving:LeftToeBase
					{
						OFFSET 0.000000 0.000000 -13.829352
						CHANNELS 6 Xposition Yposition Zposition Xrotation Yrotation Zrotation
						JOINT Haolin_28_06:Solving:LeftToeBaseEnd
						{
							OFFSET 0.000000 0.000000 -4.855067
							CHANNELS 6 Xposition Yposition Zposition Xrotation Yrotation Zrotation
							End Site
							{
								OFFSET 0.000000 -4.855064 0.000004
							}
						}
					}
				}
			}
		}
	}
}
MOTION
Frames: 4
Frame Time: 0.041667
-0.716758 -169.388718 -74.153641 136.709269 -1.055193 0.376974 -0.000001 -12.181980 2.015570 22.687706 0.068547 -1.144419 0.000000 -8.890288 1.567580 8.022108 -0.112194 -0.476573 -0.000000 -8.993094 0.786800 7.353738 -0.595602 1.279907 0.000000 -9.027425 0.000001 -1.805851 -0.453112 3.302977 0.000000 -11.606706 -1.160638 -16.069774 1.002018 0.028341 -0.000001 -7.471593 -0.653697 -16.704401 0.277765 -2.821696 0.000000 -7.386182 -1.302374 -8.455054 0.283002 -1.279568 0.000000 -9.728119 -0.000008 0.000008 0.000000 0.000000 0.000002 -8.290493 -5.270901 -0.000005 12.533558 22.030000 -19.261084 -0.000004 -0.000002 -80.548305 -39.407186 -96.576867 -30.691700 -0.000013 -0.000003 -33.783960 -16.463039 -10.735988 -20.216932 -0.000012 0.000012 4.858270 -20.169475 13.847947 -4.948793 2.881307 -3.679872 -0.000004 -0.000005 0.000008 -13.196851 -0.000018 0.084606 -0.000000 0.000001 0.000003 0.000002 -8.290493 -5.270901 -0.000002 -6.225194 -20.725885 19.261063 -0.000000 -0.000008 -76.419237 57.711035 81.976702 30.691692 0.000006 0.000012 -28.741641 13.593623 7.344886 20.216949 -0.000010 -0.000025 0.401215 6.089692 -3.776583 4.948819 2.881345 -3.679876 -0.000004 0.000000 -0.000004 13.196876 0.000007 0.084601 0.000000 -0.000001 -0.000001 -10.083067 -0.000006 -0.000007 -99.553347 13.805525 24.125186 -0.000000 47.042534 0.000021 70.277968 -0.000001 -0.000004 0.000008 38.766411 -0.000011 -15.117659 -0.114736 -1.678769 -0.000006 3.531204 -0.000006 -0.000001 -0.000004 -0.000000 -0.000017 0.000008 -13.829379 2.723633 -0.000001 0.000000 -0.000003 -0.000000 -4.034165 -0.000001 0.000001 0.000000 10.083070 0.000017 0.000035 -99.599451 -7.726488 -11.335752 0.000010 47.042500 0.000043 70.740071 -0.000001 -0.000003 0.000004 38.766422 0.000025 -13.123174 -5.822033 5.144425 -0.000008 3.531212 -0.000019 -0.000000 -0.000003 0.000000 -0.000008 0.000008 -13.829322 2.454335 -0.000004 0.000000 0.000001 -0.000000 -4.855079 -0.000001 0.000004 -0.000001 
-0.866077 -169.449448 -73.689941 137.051352 -1.149576 0.351137 -0.000000 -12.181968 2.015613 22.679730 0.091373 -1.149319 -0.000000 -8.890295 1.567607 8.070911 -0.112251 -0.462717 -0.000000 -8.993090 0.786774 7.376086 -0.586613 1.267901 0.000001 -9.027414 0.000012 -1.838221 -0.439710 3.287281 0.000000 -11.606669 -1.160661 -16.056040 0.969030 0.102090 -0.000000 -7.471611 -0.653698 -16.949232 0.372907 -2.891353 0.000001 -7.386196 -1.302349 -8.476290 0.292843 -1.295415 -0.000000 -9.728096 -0.000027 0.000010 0.000000 -0.000000 0.000001 -8.290474 -5.270914 -0.000007 12.666115 22.163334 -19.261076 0.000008 0.000010 -81.051095 -39.342429 -96.619719 -30.691710 -0.000020 -0.000015 -33.919058 -16.551500 -10.844580 -20.216925 -0.000012 -0.000009 4.839572 -20.148986 13.809367 -4.948790 2.881329 -3.679870 0.000005 -0.000000 0.000003 -13.196845 -0.000011 0.084591 -0.000001 -0.000004 0.000001 0.000003 -8.290493 -5.270916 -0.000006 -6.281729 -20.850570 19.261074 -0.000014 0.000007 -76.549420 58.233380 81.617940 30.691689 -0.000011 -0.000002 -28.946639 13.615198 7.418052 20.216940 -0.000007 -0.000011 0.456357 6.243863 -4.188553 4.948808 2.881334 -3.679872 0.000002 0.000000 0.000001 13.196862 -0.000011 0.084587 -0.000002 0.000001 0.000001 -10.083070 -0.000003 0.000053 -100.614581 13.789493 24.461098 -0.000006 47.042454 0.000021 71.377567 -0.000003 -0.000006 -0.000001 38.766396 0.000029 -15.563503 -0.312602 -1.549461 -0.000004 3.531212 0.000018 -0.000001 0.000005 -0.000000 0.000002 0.000002 -13.829342 2.705163 0.000000 -0.000000 0.000016 -0.000008 -4.034184 0.000000 0.000002 -0.000000 10.083068 0.000000 0.000046 -100.466830 -7.409466 -11.277164 0.000001 47.042507 0.000001 71.633187 0.000002 -0.000004 -0.000004 38.766418 -0.000042 -13.366650 -5.923747 5.236082 -0.000004 3.531212 -0.000015 0.000001 0.000001 0.000000 -0.000013 0.000008 -13.829346 2.492681 -0.000003 0.000001 -0.000007 -0.000007 -4.855074 0.000001 0.000003 0.000002 
-1.011766 -169.505402 -73.230743 137.427026 -1.230736 0.307364 -0.000000 -12.181981 2.015517 22.616238 0.104058 -1.134384 -0.000000 -8.890306 1.567592 8.125503 -0.112325 -0.439024 -0.000000 -8.993120 0.786777 7.392550 -0.561613 1.271369 0.000000 -9.027454 -0.000011 -1.862110 -0.420521 3.255170 -0.000001 -11.606696 -1.160670 -16.045875 0.961805 0.083353 -0.000001 -7.471595 -0.653657 -17.163895 0.385213 -2.893928 -0.000001 -7.386204 -1.302387 -8.497407 0.285541 -1.276958 -0.000001 -9.728096 0.000006 0.000000 -0.000000 -0.000000 0.000002 -8.290485 -5.270921 -0.000006 12.790544 22.227766 -19.261086 -0.000018 0.000026 -81.628356 -39.402740 -96.702720 -30.691702 -0.000013 0.000001 -34.094426 -16.529365 -10.900849 -20.216934 -0.000011 0.000017 4.829428 -20.129751 13.793556 -4.948818 2.881328 -3.679870 -0.000008 -0.000000 0.000005 -13.196877 -0.000008 0.084594 -0.000004 0.000002 -0.000000 0.000002 -8.290482 -5.270921 -0.000005 -6.355615 -20.961707 19.261065 -0.000013 0.000008 -76.763451 58.530165 81.355756 30.691702 -0.000004 -0.000011 -29.086005 13.591395 7.447578 20.216940 -0.000002 -0.000010 0.511769 6.424357 -4.564283 4.948809 2.881331 -3.679863 0.000003 0.000000 -0.000007 13.196852 -0.000011 0.084607 -0.000007 0.000000 -0.000003 -10.083073 0.000024 -0.000028 -101.648726 13.662558 24.708990 0.000002 47.042534 0.000017 72.448759 -0.000002 -0.000005 -0.000003 38.766430 0.000001 -16.006956 -0.417457 -1.460945 0.000002 3.531212 0.000004 -0.000001 -0.000002 0.000000 -0.000004 -0.000006 -13.829356 2.693578 -0.000005 0.000000 0.000002 -0.000008 -4.034189 -0.000003 -0.000000 -0.000000 10.083070 -0.000013 -0.000031 -101.355814 -7.140158 -11.225491 0.000001 47.042530 0.000024 72.485485 -0.000004 -0.000003 -0.000011 38.766411 0.000043 -13.612447 -6.125030 5.225939 0.000010 3.531197 0.000054 -0.000000 -0.000001 0.000000 -0.000017 0.000015 -13.829370 2.470594 -0.000000 0.000001 -0.000015 -0.000008 -4.855085 0.000000 0.000001 -0.000001 
-1.157023 -169.540680 -72.768570 137.675317 -1.306220 0.252564 -0.000000 -12.182009 2.015522 22.640586 0.072168 -1.107927 0.000000 -8.890291 1.567607 8.215410 -0.117229 -0.428115 -0.000000 -8.993085 0.786773 7.451110 -0.511475 1.266157 -0.000000 -9.027433 -0.000017 -1.909820 -0.389305 3.218596 0.000002 -11.606696 -1.160659 -16.052963 0.900539 0.197978 0.000001 -7.471567 -0.653667 -17.377808 0.466413 -2.961738 0.000001 -7.386176 -1.302389 -8.500102 0.290888 -1.293791 0.000000 -9.728096 0.000010 0.000012 -0.000000 0.000000 0.000002 -8.290512 -5.270899 -0.000003 12.903036 22.324284 -19.261072 -0.000004 -0.000009 -82.212112 -39.363719 -96.777094 -30.691706 0.000007 0.000006 -34.180678 -16.472024 -10.899378 -20.216934 -0.000015 0.000031 4.806836 -20.072799 13.767101 -4.948791 2.881305 -3.679892 0.000004 0.000007 0.000001 -13.196836 -0.000023 0.084589 0.000003 0.000009 0.000002 -0.000001 -8.290508 -5.270899 0.000000 -6.412436 -21.061863 19.261086 -0.000002 -0.000004 -76.901079 58.827948 81.016494 30.691700 -0.000042 0.000007 -29.450078 13.567820 7.545377 20.216934 -0.000002 -0.000018 0.588041 6.663780 -5.054596 4.948805 2.881302 -3.679894 0.000002 -0.000007 -0.000002 13.196858 -0.000036 0.084580 0.000003 -0.000002 -0.000003 -10.083071 -0.000023 -0.000003 -102.555789 13.568653 24.984041 0.000013 47.042500 -0.000002 73.515450 0.000003 -0.000004 0.000008 38.766434 -0.000021 -16.477391 -0.578348 -1.373148 0.000003 3.531204 -0.000015 -0.000000 -0.000001 -0.000000 0.000002 0.000011 -13.829363 2.674599 0.000000 0.000000 -0.000018 -0.000007 -4.034169 0.000000 -0.000000 0.000000 10.083071 -0.000037 -0.000042 -102.119142 -6.869275 -11.169910 0.000004 47.042545 0.000017 73.354948 -0.000002 -0.000003 -0.000008 38.766418 -0.000041 -13.785832 -6.365000 5.060263 -0.000007 3.531204 -0.000005 0.000001 -0.000000 -0.000001 -0.000001 0.000011 -13.829387 2.155907 -0.000001 -0.000001 0.000004 -0.000007 -4.855054 0.000002 0.000005 -0.000000 
